<svg width="40" height="40" viewBox="0 0 40 40" fill="none" xmlns="http://www.w3.org/2000/svg">
<path d="M40 20C40 8.95557 31.0444 0 20 0C8.95557 0 0 8.95557 0 20C0 31.0458 8.95491 40 20 40C31.0451 40 40 31.0458 40 20ZM37 20C37 29.3889 29.3883 37 20 37C10.6117 37 3 29.3889 3 20C3 10.6124 10.6124 3 20 3C29.3876 3 37 10.6124 37 20ZM24.0924 12.1686L23.9475 12C23.4162 11.4664 22.5829 11.4161 21.9948 11.8506L21.8262 11.9955L14.8542 18.9375C14.3189 19.4705 14.2703 20.3067 14.7082 20.8949L14.8542 21.0633L21.8262 28.0053C22.4133 28.5899 23.363 28.5878 23.9475 28.0008C24.4789 27.4671 24.5255 26.6337 24.0886 26.0474L23.943 25.8795L18.04 20.0024L23.943 14.1213C24.4767 13.59 24.5269 12.7567 24.0924 12.1686Z" fill="#4F4F4F"/>
</svg>
