<svg width="30" height="30" viewBox="0 0 30 30" fill="none" xmlns="http://www.w3.org/2000/svg">
<path d="M19.5879 3.00977C17.5155 2.92783 15.4165 3.67727 13.834 5.25977C11.859 7.23471 11.6016 9.59833 12.502 11.8418L4.17188 20.1719C2.60987 21.7339 2.60987 24.2661 4.17188 25.8281C5.73388 27.3901 8.26612 27.3901 9.82813 25.8281L18.1582 17.498C20.4017 18.3984 22.7653 18.141 24.7402 16.166C26.8502 14.056 27.4769 11.0291 26.6309 8.36914L22 13L18 12L17 8L21.6309 3.36914C20.9659 3.15764 20.2787 3.03708 19.5879 3.00977ZM7 21C8.105 21 9 21.895 9 23C9 24.105 8.105 25 7 25C5.895 25 5 24.105 5 23C5 21.895 5.895 21 7 21Z" fill="#FFFD54"/>
</svg>
