<svg width="30" height="30" viewBox="0 0 30 30" fill="none" xmlns="http://www.w3.org/2000/svg">
<path d="M19.5879 3.00976C17.5155 2.92783 15.4165 3.67726 13.834 5.25976C11.859 7.23471 11.6016 9.59833 12.502 11.8418L4.17188 20.1719C2.60987 21.7339 2.60987 24.2661 4.17188 25.8281C5.73388 27.3901 8.26612 27.3901 9.82813 25.8281L18.1582 17.498C20.4017 18.3984 22.7653 18.141 24.7402 16.166C26.8502 14.056 27.4769 11.0291 26.6309 8.36914L22 13L18 12L17 8L21.6309 3.36914C20.9659 3.15764 20.2787 3.03708 19.5879 3.00976ZM7 21C8.105 21 9 21.895 9 23C9 24.105 8.105 25 7 25C5.895 25 5 24.105 5 23C5 21.895 5.895 21 7 21Z" fill="#FFFD54"/>
<path fill-rule="evenodd" clip-rule="evenodd" d="M6.93704 0C7.4208 0 7.89105 0.198639 8.2282 0.543893C8.56467 0.891173 8.75047 1.3675 8.73628 1.85059C8.73763 1.95936 8.77344 2.08503 8.8383 2.19516C8.94573 2.37759 9.11532 2.50596 9.31666 2.55866C9.518 2.60866 9.7288 2.58163 9.90785 2.47556C10.7727 1.98166 11.8733 2.27759 12.3672 3.13566L12.7881 3.86468C12.7989 3.88427 12.8084 3.90319 12.8165 3.92278C13.2638 4.76801 12.9651 5.83215 12.1341 6.31794C12.0131 6.38753 11.9152 6.48482 11.8476 6.60238C11.7429 6.78413 11.7138 7.00034 11.7665 7.19898C11.8206 7.40167 11.9496 7.5699 12.1314 7.67395C12.5415 7.90975 12.8476 8.30703 12.9699 8.76579C13.0922 9.22388 13.0253 9.72115 12.7868 10.1313L12.3381 10.8785C11.8442 11.7271 10.7436 12.021 9.88758 11.5265C9.77339 11.4609 9.64164 11.4251 9.51057 11.4217H9.50651C9.31125 11.4217 9.11059 11.5048 8.96465 11.6501C8.81668 11.7981 8.73561 11.9954 8.73696 12.2048C8.73223 13.1973 7.92483 14 6.93704 14H6.09046C5.09794 14 4.29055 13.1933 4.29055 12.2008C4.2892 12.0785 4.25406 11.9515 4.18853 11.8413C4.08245 11.6562 3.91084 11.5238 3.71287 11.4711C3.51626 11.4184 3.30073 11.4474 3.12371 11.5501C2.69941 11.7866 2.20011 11.844 1.74337 11.7157C1.28732 11.5866 0.893416 11.2731 0.662346 10.8576L0.240069 10.1299C-0.253826 9.2732 0.040079 8.17528 0.895443 7.68071C1.138 7.54085 1.28867 7.28005 1.28867 7.00034C1.28867 6.72062 1.138 6.45915 0.895443 6.31929C0.0394034 5.82202 -0.253826 4.72139 0.239394 3.86468L0.69748 3.11269C1.18462 2.26543 2.28592 1.9668 3.14466 2.46002C3.26154 2.52961 3.38857 2.56474 3.51761 2.56609C3.93854 2.56609 4.29055 2.21881 4.29731 1.79181C4.2946 1.32088 4.4804 0.868877 4.8189 0.527677C5.15875 0.187153 5.61008 0 6.09046 0H6.93704ZM6.93704 1.01346H6.09046C5.88101 1.01346 5.68508 1.09522 5.53711 1.24251C5.38982 1.39047 5.30942 1.58709 5.31077 1.79653C5.29658 2.78432 4.48919 3.57956 3.51153 3.57956C3.19803 3.57618 2.89602 3.49172 2.63387 3.33497C2.26565 3.12552 1.78459 3.25457 1.56906 3.62955L1.11165 4.38154C0.9022 4.74504 1.03057 5.22542 1.40353 5.4423C1.95688 5.76256 2.30213 6.35983 2.30213 7.00034C2.30213 7.64085 1.95688 8.23744 1.40218 8.55837C1.03125 8.77322 0.902875 9.25091 1.11773 9.62251L1.54406 10.3576C1.64946 10.5475 1.82175 10.6846 2.02106 10.7407C2.2197 10.7961 2.43861 10.7725 2.62104 10.6711C2.88927 10.5137 3.20141 10.4319 3.51491 10.4319C3.66963 10.4319 3.82436 10.4515 3.9757 10.4921C4.43243 10.615 4.82904 10.9204 5.06416 11.3305C5.21686 11.588 5.30131 11.8886 5.30401 12.1954C5.30401 12.6345 5.6567 12.9865 6.09046 12.9865H6.93704C7.36878 12.9865 7.72146 12.6366 7.72349 12.2048C7.72079 11.7278 7.90727 11.2745 8.24847 10.9333C8.58494 10.5968 9.05518 10.3948 9.52543 10.4083C9.83352 10.4157 10.1301 10.4988 10.3916 10.6475C10.7679 10.863 11.2483 10.7346 11.4659 10.363L11.9145 9.61508C12.0145 9.44279 12.0436 9.22658 11.9902 9.02727C11.9375 8.82795 11.8051 8.65499 11.6267 8.55297C11.2091 8.31244 10.9112 7.92462 10.7875 7.45977C10.6652 7.00372 10.7321 6.50577 10.9706 6.09565C11.126 5.82539 11.3537 5.5977 11.6267 5.44095C11.9929 5.22677 12.1213 4.74774 11.9084 4.37479C11.8996 4.35992 11.8915 4.34438 11.8848 4.32817L11.4889 3.64172C11.2733 3.26673 10.7936 3.13769 10.4173 3.35187C10.0105 3.59239 9.52678 3.66131 9.06194 3.53902C8.59777 3.41875 8.2086 3.12485 7.96605 2.71C7.81065 2.45056 7.72619 2.14855 7.72349 1.84113C7.72957 1.61006 7.6485 1.40263 7.5012 1.25062C7.35459 1.09927 7.14852 1.01346 6.93704 1.01346ZM6.51673 4.712C7.77815 4.712 8.80445 5.73898 8.80445 7.00041C8.80445 8.26183 7.77815 9.28746 6.51673 9.28746C5.2553 9.28746 4.229 8.26183 4.229 7.00041C4.229 5.73898 5.2553 4.712 6.51673 4.712ZM6.51673 5.72547C5.81406 5.72547 5.24246 6.29774 5.24246 7.00041C5.24246 7.70307 5.81406 8.27399 6.51673 8.27399C7.21939 8.27399 7.79099 7.70307 7.79099 7.00041C7.79099 6.29774 7.21939 5.72547 6.51673 5.72547Z" fill="#F2C94C"/>
</svg>
